<svg width="119" height="79" viewBox="0 0 119 79" fill="none" xmlns="http://www.w3.org/2000/svg">
<g clip-path="url(#clip0_53_328)">
<path d="M16.2429 76.8651L18.4174 76.8649L19.4515 68.5122L16.2422 68.5126L16.2429 76.8651Z" fill="#FFB8B8"/>
<path d="M22.6113 78.8755L15.7774 78.8761L15.7771 76.2466L19.9707 76.2462C20.671 76.2461 21.3426 76.5231 21.8378 77.0162C22.333 77.5093 22.6113 78.1781 22.6113 78.8755Z" fill="#2F2E41"/>
<path d="M33.742 76.8651L35.9164 76.8649L36.9505 68.5122L33.7412 68.5126L33.742 76.8651Z" fill="#FFB8B8"/>
<path d="M40.1104 78.8755L33.2764 78.8761L33.2761 76.2466L37.4697 76.2462C38.17 76.2461 38.8416 76.5231 39.3368 77.0162C39.832 77.5093 40.1103 78.1781 40.1104 78.8755Z" fill="#2F2E41"/>
<path d="M15.7735 73.7892C15.575 73.7894 15.3827 73.7208 15.2295 73.5952C15.0763 73.4696 14.9717 73.2948 14.9338 73.1008L13.5374 55.6276C12.0343 40.8306 14.6072 35.6176 14.6334 35.5667L14.6616 35.5117L14.7235 35.5153L26.7924 36.2071L29.3543 44.553L36.1264 53.6145C37.1978 55.0536 37.7669 56.8023 37.747 58.5938L37.5756 71.8055C37.5717 72.0191 37.4879 72.2235 37.3406 72.3788C37.1933 72.534 36.9931 72.6289 36.7792 72.6449L33.2438 72.8898C33.0228 72.9058 32.8041 72.8355 32.6342 72.6939C32.4643 72.5522 32.3564 72.3502 32.3334 72.1306L31.4575 57.7868C31.4549 57.7718 31.4479 57.7581 31.4372 57.7473L21.3935 48.4246C21.3604 48.3895 21.3188 48.3634 21.2727 48.3486C21.2267 48.3339 21.1776 48.331 21.1301 48.3403C21.0827 48.3497 21.0383 48.3709 21.0014 48.4019C20.9644 48.433 20.9359 48.4729 20.9187 48.518L19.9058 72.8008C19.917 72.9162 19.9041 73.0327 19.868 73.1429C19.8319 73.2532 19.7734 73.3548 19.696 73.4414C19.6173 73.53 19.5211 73.6014 19.4133 73.651C19.3055 73.7006 19.1885 73.7274 19.0698 73.7296L15.7893 73.7891C15.784 73.7892 15.7787 73.7892 15.7735 73.7892Z" fill="#2F2E41"/>
<path d="M24.2574 17.4884C27.2108 15.8806 28.2962 12.1929 26.6817 9.25167C25.0673 6.31047 21.3643 5.22954 18.411 6.83734C15.4576 8.44515 14.3722 12.1329 15.9867 15.0741C17.6011 18.0153 21.3041 19.0962 24.2574 17.4884Z" fill="#2F2E41"/>
<path d="M47.5124 24.0765C47.2853 23.9489 47.0329 23.8724 46.773 23.8524C46.513 23.8325 46.2518 23.8695 46.0077 23.9609C45.7637 24.0524 45.5428 24.196 45.3605 24.3817C45.1782 24.5674 45.039 24.7906 44.9528 25.0356L40.8835 25.2628L40.4189 27.7592L46.1611 27.358C46.584 27.4751 47.0354 27.4336 47.4297 27.2413C47.8239 27.0491 48.1337 26.7195 48.3003 26.315C48.4669 25.9105 48.4787 25.4592 48.3335 25.0467C48.1882 24.6341 47.8961 24.2889 47.5124 24.0765Z" fill="#FFB8B8"/>
<path d="M13.8865 44.6746C13.9993 44.4404 14.0591 44.1845 14.0618 43.9249C14.0645 43.6652 14.01 43.4081 13.9021 43.1717C13.7943 42.9353 13.6357 42.7253 13.4375 42.5566C13.2393 42.3878 13.0064 42.2644 12.7552 42.1949L12.2567 38.1665L9.72461 37.8711L10.5088 43.5502C10.4197 43.9783 10.4913 44.424 10.7102 44.803C10.929 45.182 11.2799 45.4679 11.6962 45.6065C12.1126 45.7451 12.5655 45.7267 12.9692 45.555C13.3729 45.3832 13.6993 45.07 13.8865 44.6746Z" fill="#FFB8B8"/>
<path d="M21.0681 18.6729C23.6481 18.6729 25.7397 16.59 25.7397 14.0206C25.7397 11.4511 23.6481 9.36816 21.0681 9.36816C18.488 9.36816 16.3965 11.4511 16.3965 14.0206C16.3965 16.59 18.488 18.6729 21.0681 18.6729Z" fill="#FFB8B8"/>
<path d="M21.9888 37.851C19.5047 37.851 17.4231 37.6508 15.3587 36.9157C14.5088 36.6132 14.4179 36.2381 14.2984 35.7689C14.1108 35.0324 14.008 26.3231 14.9765 23.4327C15.2392 22.6558 15.7177 21.9689 16.3564 21.4516C16.9951 20.9344 17.7679 20.608 18.5852 20.5103C19.5074 20.402 22.2657 20.0138 23.8279 19.792C24.5955 19.677 25.3776 19.8678 26.005 20.323C26.419 20.6327 26.634 20.9653 26.644 21.3117L27.0685 36.0372C27.0823 36.4627 26.9296 36.877 26.6424 37.1924C26.3553 37.5079 25.9563 37.6999 25.5297 37.7279C24.5752 37.7922 23.3345 37.851 21.9888 37.851Z" fill="#E2B350"/>
<path d="M9.63206 41.4575C9.5169 41.4575 9.40292 41.4343 9.29696 41.3893C9.191 41.3444 9.09523 41.2786 9.01539 41.196C8.93556 41.1133 8.8733 41.0155 8.83234 40.9083C8.79137 40.8011 8.77256 40.6868 8.77701 40.5722L8.92537 33.8184C8.95789 32.9837 9.20813 32.1719 9.65145 31.4628L15.4081 22.2665C15.5884 21.98 15.839 21.7439 16.1362 21.5803C16.4334 21.4168 16.7675 21.3312 17.1071 21.3315C17.4471 21.3316 17.7813 21.4188 18.0776 21.5848C18.374 21.7507 18.6224 21.9898 18.7991 22.2791C18.9826 22.578 19.0836 22.9199 19.0919 23.2701C19.1002 23.6204 19.0154 23.9666 18.8462 24.2738L13.2622 34.3805L13.6466 40.5837C13.6486 40.6968 13.6281 40.8091 13.5861 40.9142C13.5441 41.0192 13.4816 41.1149 13.4021 41.1957C13.3226 41.2764 13.2278 41.3406 13.1231 41.3845C13.0185 41.4284 12.9061 41.4511 12.7926 41.4514L9.63396 41.4575L9.63206 41.4575Z" fill="#E2B350"/>
<path d="M43.7486 28.7649C43.6723 28.8508 43.5792 28.9203 43.475 28.9691C43.3708 29.018 43.2577 29.0452 43.1427 29.049L36.3656 29.407C35.528 29.4369 34.697 29.249 33.9543 28.862L24.3154 23.833C24.0145 23.676 23.7588 23.445 23.5727 23.1619C23.3866 22.8788 23.2763 22.5531 23.2521 22.2156C23.228 21.8781 23.2908 21.5401 23.4347 21.2336C23.5786 20.9271 23.7988 20.6623 24.0744 20.4644C24.3599 20.2597 24.6947 20.1339 25.0448 20.0995C25.3949 20.0651 25.7479 20.1234 26.0681 20.2685L36.6059 25.058L42.793 24.2118C42.9058 24.2019 43.0193 24.2145 43.1272 24.2486C43.235 24.2828 43.3349 24.3379 43.4212 24.4108C43.5075 24.4837 43.5785 24.5729 43.63 24.6732C43.6814 24.7736 43.7124 24.8831 43.7211 24.9955L43.9635 28.1319C43.9647 28.1476 43.9654 28.1632 43.9658 28.1788C43.9713 28.3946 43.8936 28.6044 43.7486 28.7649Z" fill="#E2B350"/>
<path d="M17.6075 13.3615L16.3955 10.1021L21.8452 8.53125L25.7404 9.72328V13.3615H17.6075Z" fill="#2F2E41"/>
<path d="M23.3362 6.01321C23.2204 4.70549 22.7163 3.4617 21.8882 2.44028C21.0601 1.41887 19.9455 0.66606 18.6862 0.27777C17.427 -0.11052 16.0802 -0.116716 14.8174 0.259969C13.5547 0.636653 12.4331 1.37917 11.5955 2.39292C10.4498 3.77966 9.92042 5.56369 9.53296 7.31755C9.14551 9.07141 8.86497 10.8715 8.11266 12.5035C7.36034 14.1356 6.03395 15.6183 4.28279 16.0467C2.53164 16.4752 0.404803 15.5105 0 13.7605C0.0627991 14.9432 0.362699 16.1014 0.882026 17.1669C1.40135 18.2323 2.1296 19.1835 3.02383 19.9642C4.54107 21.2746 7.01828 20.8113 8.51191 19.4742C10.0055 18.1372 10.7448 16.175 11.3843 14.2791C12.0239 12.3831 12.6545 10.4062 14.0111 8.93146C15.3677 7.45667 19.2125 5.88917 20.955 6.88375C22.3214 7.66373 22.8117 7.16789 23.3362 6.01321Z" fill="#2F2E41"/>
<path d="M115.861 44.8093H49.6706C48.8385 44.8083 48.0408 44.4787 47.4525 43.8928C46.8641 43.3069 46.5332 42.5125 46.5322 41.6838V8.15622C46.5332 7.32758 46.8641 6.53315 47.4525 5.94722C48.0408 5.36129 48.8385 5.0317 49.6706 5.03076H115.861C116.694 5.0317 117.491 5.36128 118.08 5.94721C118.668 6.53315 118.999 7.32758 119 8.15622V41.6838C118.999 42.5125 118.668 43.3069 118.08 43.8928C117.491 44.4788 116.694 44.8083 115.861 44.8093Z" fill="#E6E6E6"/>
<path d="M115.1 42.5366H50.4312C50.0025 42.5361 49.5916 42.3663 49.2885 42.0645C48.9854 41.7626 48.8149 41.3534 48.8145 40.9265V8.91428C48.8149 8.48741 48.9854 8.07815 49.2885 7.77631C49.5916 7.47446 50.0025 7.30468 50.4312 7.3042H115.1C115.529 7.30468 115.94 7.47446 116.243 7.77631C116.546 8.07815 116.717 8.48741 116.717 8.91428V40.9265C116.717 41.3534 116.546 41.7626 116.243 42.0645C115.94 42.3663 115.529 42.5361 115.1 42.5366Z" fill="white"/>
<path d="M108.063 37.8955H57.4689C57.0653 37.8955 56.6783 37.7358 56.3929 37.4516C56.1076 37.1675 55.9473 36.782 55.9473 36.3801C55.9473 35.9782 56.1076 35.5928 56.3929 35.3086C56.6783 35.0244 57.0653 34.8647 57.4689 34.8647H108.063C108.467 34.8647 108.854 35.0244 109.139 35.3086C109.424 35.5928 109.585 35.9782 109.585 36.3801C109.585 36.782 109.424 37.1675 109.139 37.4516C108.854 37.7358 108.467 37.8955 108.063 37.8955Z" fill="#E6E6E6"/>
<path d="M108.063 31.4551H57.4689C57.0653 31.4551 56.6783 31.2954 56.3929 31.0112C56.1076 30.727 55.9473 30.3416 55.9473 29.9397C55.9473 29.5378 56.1076 29.1523 56.3929 28.8682C56.6783 28.584 57.0653 28.4243 57.4689 28.4243H108.063C108.467 28.4243 108.854 28.584 109.139 28.8682C109.424 29.1523 109.585 29.5378 109.585 29.9397C109.585 30.3416 109.424 30.727 109.139 31.0112C108.854 31.2954 108.467 31.4551 108.063 31.4551Z" fill="#E6E6E6"/>
<path d="M68.5011 23.9971H57.4693C57.0406 23.9966 56.6297 23.8268 56.3266 23.525C56.0235 23.2231 55.853 22.8139 55.8525 22.387V14.383C55.853 13.9562 56.0235 13.5469 56.3266 13.2451C56.6297 12.9432 57.0406 12.7734 57.4693 12.7729H68.5011C68.9297 12.7734 69.3407 12.9432 69.6438 13.2451C69.9469 13.5469 70.1173 13.9562 70.1178 14.383V22.387C70.1173 22.8139 69.9469 23.2231 69.6438 23.525C69.3407 23.8268 68.9297 23.9966 68.5011 23.9971Z" fill="#E2B350"/>
<path d="M108.119 23.1206H82.4416C82.038 23.1206 81.651 22.9609 81.3656 22.6767C81.0802 22.3926 80.9199 22.0071 80.9199 21.6052C80.9199 21.2033 81.0802 20.8179 81.3656 20.5337C81.651 20.2495 82.038 20.0898 82.4416 20.0898H108.119C108.523 20.0898 108.91 20.2495 109.195 20.5337C109.48 20.8179 109.641 21.2033 109.641 21.6052C109.641 22.0071 109.48 22.3926 109.195 22.6767C108.91 22.9609 108.523 23.1206 108.119 23.1206Z" fill="#CCCCCC"/>
<path d="M97.4676 16.6802H82.4416C82.038 16.6802 81.651 16.5205 81.3656 16.2363C81.0802 15.9521 80.9199 15.5667 80.9199 15.1648C80.9199 14.7629 81.0802 14.3774 81.3656 14.0933C81.651 13.8091 82.038 13.6494 82.4416 13.6494H97.4676C97.8712 13.6494 98.2582 13.8091 98.5436 14.0933C98.829 14.3774 98.9893 14.7629 98.9893 15.1648C98.9893 15.5667 98.829 15.9521 98.5436 16.2363C98.2582 16.5205 97.8712 16.6802 97.4676 16.6802Z" fill="#CCCCCC"/>
<path d="M47.6113 78.9999H9.95095C9.9005 78.9999 9.85212 78.98 9.81645 78.9445C9.78078 78.9089 9.76074 78.8608 9.76074 78.8105C9.76074 78.7603 9.78078 78.7121 9.81645 78.6766C9.85212 78.6411 9.9005 78.6211 9.95095 78.6211H47.6113C47.6617 78.6211 47.7101 78.6411 47.7458 78.6766C47.7814 78.7121 47.8015 78.7603 47.8015 78.8105C47.8015 78.8608 47.7814 78.9089 47.7458 78.9445C47.7101 78.98 47.6617 78.9999 47.6113 78.9999Z" fill="#CCCCCC"/>
</g>
<defs>
<clipPath id="clip0_53_328">
<rect width="119" height="79" fill="white"/>
</clipPath>
</defs>
</svg>
