<svg width="234" height="137" viewBox="0 0 234 137" fill="none" xmlns="http://www.w3.org/2000/svg">
<g clip-path="url(#clip0_53_351)">
<path d="M77.0919 133.114H0V133.647H77.0919V133.114Z" fill="#3F3D56"/>
<path d="M48.6608 42.878C48.8839 43.5936 49.0815 44.276 49.2477 44.8626L49.1441 44.8998C49.0149 44.3562 48.8506 43.6523 48.6608 42.878ZM42.4707 25.4561L42.4395 25.4737L42.4688 25.4463L42.4707 25.4561Z" fill="url(#paint0_linear_53_351)"/>
<path d="M34.8833 126.124C33.7192 126.497 32.8447 133.65 32.8447 133.65L40.0834 135.437C40.0834 135.437 45.1603 136.186 47.5725 135.437C49.9848 134.688 49.9026 132.609 46.4496 132.277C42.9965 131.945 40.5412 127.496 40.5412 127.496C40.5412 127.496 36.0474 125.75 34.8833 126.124Z" fill="#090814"/>
<path d="M26.3885 127.579C26.4061 128.152 26.3104 128.722 26.1068 129.258C25.5234 131.011 25.2765 132.859 25.379 134.704C25.3947 134.924 25.4123 135.155 25.4319 135.396C25.6823 138.264 32.6256 136.479 33.0873 136.145C33.549 135.81 31.7178 127.579 31.7178 127.579C31.7178 127.579 26.2731 126.415 26.3885 127.579Z" fill="#090814"/>
<path d="M33.9893 23.3576C33.9911 23.3599 33.9924 23.3626 33.9932 23.3654C34.1399 23.7252 39.5924 37.0879 38.6064 32.7177C38.577 32.5877 38.5574 32.4557 38.5477 32.3228C38.4635 31.2493 38.9703 30.0683 39.7861 28.8951C40.3061 28.162 40.8837 27.4715 41.5136 26.8303C41.8286 26.5037 42.1553 26.185 42.4859 25.8761C43.3937 25.0255 44.3386 24.2473 45.176 23.5981C46.6804 22.4249 47.8425 21.68 47.8425 21.68C47.8425 21.68 37.2975 9.39272 38.0449 14.6936C38.2503 16.1464 39.1072 17.5953 38.5262 18.9406C38.1449 19.7929 37.6044 20.5647 36.9336 21.2146C36.4041 21.738 35.8271 22.2113 35.21 22.6283C34.9459 22.8062 34.7073 22.9548 34.5136 23.0682C34.1908 23.2579 33.9893 23.3576 33.9893 23.3576Z" fill="#F8A8AB"/>
<path d="M70.1479 39.2039C70.1479 39.2039 70.5627 38.9731 71.1887 38.6974C73.0297 37.8958 76.7058 36.7226 77.1695 39.9528C77.7936 44.2857 73.6597 43.7871 73.6597 43.7871C72.8425 43.4772 72.0052 43.2231 71.1535 43.0265C70.7348 42.9135 70.2976 42.8863 69.8682 42.9463L70.1479 39.2039Z" fill="#F8A8AB"/>
<path d="M69.5176 43.306H70.7618C71.4857 42.3284 70.9321 38.6133 70.9321 38.6133L69.8502 38.8088L69.5176 43.306Z" fill="#E2E3E4"/>
<path d="M47.2812 49.5786L47.4886 60.5127L48.8581 65.6689C48.8581 65.6689 49.5311 70.6589 50.3567 70.2424C51.1823 69.826 54.7038 71.0109 54.7038 71.0109L54.8701 69.1611L53.6845 58.2895L52.7689 52.8635C52.7689 52.8635 52.2485 48.6009 51.8533 46.106C51.4582 43.611 48.1518 45.5878 48.1518 45.5878L47.2812 49.5786Z" fill="#090814"/>
<path d="M51.2395 44.1544C53.4874 43.5248 56.3887 44.1544 56.3887 44.1544L69.4966 44.4438C71.8365 41.3563 70.2146 38.4566 70.2146 38.4566C70.2146 38.4566 63.7859 38.2043 58.576 37.4261C53.3661 36.6479 49.9346 32.7803 49.9346 32.7803L51.2395 44.1544Z" fill="#090814"/>
<path opacity="0.1" d="M38.0457 14.6936C37.2984 9.39272 47.8434 21.68 47.8434 21.68C47.8434 21.68 46.6813 22.4249 45.1768 23.5981C45.0379 23.6079 44.899 23.6079 44.7562 23.6079C41.5301 23.6079 39.3057 21.59 38.0262 18.8526C38.5407 17.6344 38.2766 16.3165 38.0457 14.6936Z" fill="black"/>
<path d="M37.1572 16.3301C37.1607 14.4208 37.9223 12.5911 39.2747 11.2427C40.6272 9.89425 42.4598 9.13752 44.3701 9.13867C46.2804 9.13983 48.1121 9.89878 49.4629 11.2488C50.8137 12.5988 51.5731 14.4296 51.5743 16.3388C51.5754 18.248 50.8183 20.0797 49.4691 21.4314C48.12 22.783 46.2892 23.5442 44.3789 23.5477C42.4686 23.5512 40.635 22.7967 39.281 21.45C37.9269 20.1032 37.1631 18.2743 37.1573 16.3651C37.1572 16.3534 37.1572 16.3418 37.1572 16.3301Z" fill="#F8A8AB"/>
<path d="M33.6026 47.293L33.9939 23.3579L38.1747 25.5459L41.6434 26.3672L42.5219 25.8549L42.5845 25.8177L42.7273 25.7356C42.7273 25.7356 42.7742 25.8373 42.8642 26.023C43.6233 27.6283 47.317 35.4789 47.2388 36.1516C47.1566 36.8985 49.874 46.3151 49.874 46.3151L48.5633 55.2335C48.5633 55.2335 51.0498 61.428 50.3925 63.7157C49.7351 66.0034 31.8066 64.4216 31.8066 64.4216L33.6026 47.293Z" fill="#E2E3E4"/>
<path d="M40.6045 27.1061L41.9975 28.8932L42.2225 29.4153C43.0092 31.2564 43.461 33.2229 43.5567 35.2226V37.5416L43.8482 56.1269L45.4505 58.9836L45.742 55.4484L45.0983 35.553L44.2238 31.0558L43.7465 28.2069C43.4902 27.7093 43.2673 27.1953 43.0793 26.6681C42.602 25.4421 41.3734 25.7745 41.3734 25.7745L40.6045 27.1061Z" fill="#090814"/>
<path d="M34.4727 22.9688L34.5137 23.0685L34.8052 23.7841L35.1339 24.5839C35.5194 24.8293 35.8787 25.1137 36.206 25.4325C37.3173 26.4297 38.9293 28.033 39.7862 28.8953C40.1482 29.259 40.3751 29.4898 40.3751 29.4898C40.7997 29.1124 41.2261 27.8512 41.5138 26.8305C41.5607 26.6682 41.6018 26.5118 41.6409 26.3671C41.7857 25.8137 41.8737 25.4149 41.8737 25.4149C40.784 25.0258 38.2407 22.5406 36.9338 21.2148C36.4042 21.7383 35.8272 22.2116 35.2102 22.6285C35.1359 22.4213 34.4727 22.9688 34.4727 22.9688Z" fill="#E2E3E4"/>
<path d="M43.5717 26.32C44.3875 26.8186 45.714 27.4678 47.1852 27.5421C47.1852 27.5421 50.3722 29.2276 50.963 34.9958C51.5539 40.764 54.0502 58.1018 54.0502 58.1018C54.0502 58.1018 56.2727 69.7926 54.7076 71.0069L52.9605 56.6959C52.9605 56.6959 49.9027 48.4308 49.6816 46.9017C49.4859 45.5095 47.0541 37.8975 46.6276 36.5639C46.5846 36.4388 46.5631 36.3684 46.5631 36.3684L44.1313 29.4954L42.7266 25.7334C42.9948 25.9477 43.2771 26.1437 43.5717 26.32Z" fill="#090814"/>
<path d="M26.1078 104.879C26.1078 104.879 28.5611 87.9538 27.8959 85.67C27.2307 83.3862 28.3537 66.5079 28.3537 66.5079L28.7235 63.3422L28.9309 61.557L29.0189 60.8101L29.4473 60.9411C33.5823 62.1449 37.8296 62.9233 42.1229 63.264C43.0745 63.3287 44.0304 63.2522 44.9597 63.0372C46.6578 62.65 49.9407 62.1749 50.5139 61.7682C50.5139 61.7682 50.7095 62.2942 50.9541 63.1545C51.5175 65.1431 52.3666 68.9442 51.7132 72.1822L50.7135 78.7306C50.7135 78.7306 50.3202 85.4041 49.029 89.3968L47.8865 94.8424L46.3878 105.943C45.648 108.901 45.1126 111.906 44.7855 114.937C44.2397 119.97 41.1231 128.319 41.1231 128.319C41.1231 128.319 34.4988 129.235 34.3031 126.99L36.5921 109.484L38.7129 84.4127C38.7129 84.4127 36.4141 100.055 35.0935 103.424C35.0935 103.424 33.2623 122.627 32.6382 125.586C32.0141 128.544 31.5994 129.326 31.5994 129.326C31.5994 129.326 27.7296 130.742 25.9825 128.122C25.9825 128.122 25.4837 120.35 25.11 117.563C24.7344 114.773 26.1078 104.879 26.1078 104.879Z" fill="#090814"/>
<path d="M29.1496 66.9985L31.8885 68.3301L28.6233 74.4835C27.3966 73.3396 27.5414 68.7877 27.5414 68.7877L29.1496 66.9985Z" fill="#F8A8AB"/>
<path d="M30.3272 66.9985L31.5753 67.9761L29.9123 70.4925L27.645 71.3236L27.457 69.6596L30.3272 66.9985Z" fill="#E2E3E4"/>
<g opacity="0.1">
<path d="M50.5158 61.7915C50.5093 61.783 50.5053 61.7729 50.5041 61.7622C50.4689 61.7853 50.4323 61.8062 50.3945 61.8248L50.5158 61.7915Z" fill="black"/>
</g>
<path d="M19.6709 70.4494C21.1676 72.1955 27.6922 72.5084 27.6922 72.5084L32.7769 64.4994L34.1483 62.3407C34.1483 62.3407 35.6762 61.281 38.5482 56.508C41.4202 51.7351 41.3224 48.0591 41.164 45.3138C41.0055 42.5686 39.2076 34.6788 39.2076 34.6788C39.0314 33.8819 38.8113 33.0953 38.5482 32.3227C37.9242 30.3556 36.9792 27.6221 36.2064 25.4321C36.0675 25.0371 35.9345 24.6598 35.8073 24.3078C35.5726 23.6391 36.766 21.0913 36.766 21.0913C36.3453 21.9341 33.6964 23.3204 32.7749 23.9011C30.2903 25.4654 26.8216 26.1067 26.8216 26.1067C21.236 26.9182 22.2671 32.6864 22.2671 32.6864C22.2671 32.6864 22.2045 55.108 22.5488 57.7907C22.8931 60.4734 19.6709 70.4494 19.6709 70.4494Z" fill="#090814"/>
<path opacity="0.1" d="M22.5095 32.6845C22.5095 32.6845 20.1383 42.9773 19.4829 49.338C18.8275 55.6986 21.2926 59.752 21.2926 59.752L26.5651 71.4468C28.3748 70.9814 32.0567 67.1451 32.0567 67.1451L26.7744 52.5193C26.7744 52.5193 28.7328 45.1341 29.9575 38.3315C31.1822 31.5289 27.9365 28.4767 27.9365 28.4767C22.5075 26.4197 22.5095 32.6845 22.5095 32.6845Z" fill="black"/>
<path d="M22.2595 32.6845C22.2595 32.6845 19.8883 42.9773 19.2329 49.338C18.5775 55.6986 21.0426 59.752 21.0426 59.752L26.3249 71.4468C28.1345 70.9814 31.8165 67.1451 31.8165 67.1451L26.5342 52.5193C26.5342 52.5193 28.4945 45.1341 29.7153 38.3315C30.9361 31.5289 27.6885 28.4767 27.6885 28.4767C22.2595 26.4197 22.2595 32.6845 22.2595 32.6845Z" fill="#090814"/>
<path d="M32.679 68.995L31.2234 73.154L29.6015 75.3772C29.6015 75.3772 28.3866 76.1886 28.0834 74.6713C27.7801 73.154 31.8886 67.4562 31.8886 67.4562C32.5381 67.2 32.679 68.995 32.679 68.995Z" fill="#090814"/>
<path d="M37.6955 20.2297C37.6955 20.2297 30.1637 9.91408 39.6481 7.68368C39.6481 7.68368 42.3425 3.64433 45.6532 5.63106C47.278 6.58391 49.1318 7.07664 51.0155 7.05638C52.6195 7.05638 54.1538 7.68368 53.8748 10.1929C53.3169 15.2113 50.2484 14.3749 50.2484 14.3749C50.2484 14.3749 41.9269 10.6486 41.648 14.8306C41.369 19.0126 37.6955 20.2297 37.6955 20.2297Z" fill="#090814"/>
<path d="M126.405 3.24018C127.3 3.24018 128.026 2.51484 128.026 1.62009C128.026 0.72534 127.3 0 126.405 0C125.51 0 124.784 0.72534 124.784 1.62009C124.784 2.51484 125.51 3.24018 126.405 3.24018Z" fill="#E2E3E4"/>
<path d="M134.61 3.24018C135.505 3.24018 136.231 2.51484 136.231 1.62009C136.231 0.72534 135.505 0 134.61 0C133.715 0 132.989 0.72534 132.989 1.62009C132.989 2.51484 133.715 3.24018 134.61 3.24018Z" fill="#E2E3E4"/>
<path d="M142.815 3.24018C143.711 3.24018 144.436 2.51484 144.436 1.62009C144.436 0.72534 143.711 0 142.815 0C141.92 0 141.194 0.72534 141.194 1.62009C141.194 2.51484 141.92 3.24018 142.815 3.24018Z" fill="#E2E3E4"/>
<path d="M151.021 3.24018C151.917 3.24018 152.642 2.51484 152.642 1.62009C152.642 0.72534 151.917 0 151.021 0C150.126 0 149.4 0.72534 149.4 1.62009C149.4 2.51484 150.126 3.24018 151.021 3.24018Z" fill="#E2E3E4"/>
<path d="M159.226 3.24018C160.122 3.24018 160.847 2.51484 160.847 1.62009C160.847 0.72534 160.122 0 159.226 0C158.331 0 157.605 0.72534 157.605 1.62009C157.605 2.51484 158.331 3.24018 159.226 3.24018Z" fill="#E2E3E4"/>
<path d="M126.405 11.5439C127.3 11.5439 128.026 10.8186 128.026 9.9238C128.026 9.02905 127.3 8.30371 126.405 8.30371C125.51 8.30371 124.784 9.02905 124.784 9.9238C124.784 10.8186 125.51 11.5439 126.405 11.5439Z" fill="#E2E3E4"/>
<path d="M134.61 11.5439C135.505 11.5439 136.231 10.8186 136.231 9.9238C136.231 9.02905 135.505 8.30371 134.61 8.30371C133.715 8.30371 132.989 9.02905 132.989 9.9238C132.989 10.8186 133.715 11.5439 134.61 11.5439Z" fill="#E2E3E4"/>
<path d="M142.815 11.5439C143.711 11.5439 144.436 10.8186 144.436 9.9238C144.436 9.02905 143.711 8.30371 142.815 8.30371C141.92 8.30371 141.194 9.02905 141.194 9.9238C141.194 10.8186 141.92 11.5439 142.815 11.5439Z" fill="#E2E3E4"/>
<path d="M151.021 11.5439C151.917 11.5439 152.642 10.8186 152.642 9.9238C152.642 9.02905 151.917 8.30371 151.021 8.30371C150.126 8.30371 149.4 9.02905 149.4 9.9238C149.4 10.8186 150.126 11.5439 151.021 11.5439Z" fill="#E2B350"/>
<path d="M159.226 11.5439C160.122 11.5439 160.847 10.8186 160.847 9.9238C160.847 9.02905 160.122 8.30371 159.226 8.30371C158.331 8.30371 157.605 9.02905 157.605 9.9238C157.605 10.8186 158.331 11.5439 159.226 11.5439Z" fill="#E2E3E4"/>
<path d="M175.638 11.5439C176.533 11.5439 177.259 10.8186 177.259 9.9238C177.259 9.02905 176.533 8.30371 175.638 8.30371C174.742 8.30371 174.017 9.02905 174.017 9.9238C174.017 10.8186 174.742 11.5439 175.638 11.5439Z" fill="#E2E3E4"/>
<path d="M126.405 19.8476C127.3 19.8476 128.026 19.1223 128.026 18.2275C128.026 17.3328 127.3 16.6074 126.405 16.6074C125.51 16.6074 124.784 17.3328 124.784 18.2275C124.784 19.1223 125.51 19.8476 126.405 19.8476Z" fill="#E2E3E4"/>
<path d="M134.61 19.8476C135.505 19.8476 136.231 19.1223 136.231 18.2275C136.231 17.3328 135.505 16.6074 134.61 16.6074C133.715 16.6074 132.989 17.3328 132.989 18.2275C132.989 19.1223 133.715 19.8476 134.61 19.8476Z" fill="#E2E3E4"/>
<path d="M142.815 19.8476C143.711 19.8476 144.436 19.1223 144.436 18.2275C144.436 17.3328 143.711 16.6074 142.815 16.6074C141.92 16.6074 141.194 17.3328 141.194 18.2275C141.194 19.1223 141.92 19.8476 142.815 19.8476Z" fill="#E2E3E4"/>
<path d="M151.021 19.8476C151.917 19.8476 152.642 19.1223 152.642 18.2275C152.642 17.3328 151.917 16.6074 151.021 16.6074C150.126 16.6074 149.4 17.3328 149.4 18.2275C149.4 19.1223 150.126 19.8476 151.021 19.8476Z" fill="#E2E3E4"/>
<path d="M159.226 19.8476C160.122 19.8476 160.847 19.1223 160.847 18.2275C160.847 17.3328 160.122 16.6074 159.226 16.6074C158.331 16.6074 157.605 17.3328 157.605 18.2275C157.605 19.1223 158.331 19.8476 159.226 19.8476Z" fill="#E2E3E4"/>
<path d="M126.405 28.1518C127.3 28.1518 128.026 27.4265 128.026 26.5317C128.026 25.637 127.3 24.9116 126.405 24.9116C125.51 24.9116 124.784 25.637 124.784 26.5317C124.784 27.4265 125.51 28.1518 126.405 28.1518Z" fill="#E2E3E4"/>
<path d="M134.61 28.1518C135.505 28.1518 136.231 27.4265 136.231 26.5317C136.231 25.637 135.505 24.9116 134.61 24.9116C133.715 24.9116 132.989 25.637 132.989 26.5317C132.989 27.4265 133.715 28.1518 134.61 28.1518Z" fill="#E2E3E4"/>
<path d="M142.815 28.1518C143.711 28.1518 144.436 27.4265 144.436 26.5317C144.436 25.637 143.711 24.9116 142.815 24.9116C141.92 24.9116 141.194 25.637 141.194 26.5317C141.194 27.4265 141.92 28.1518 142.815 28.1518Z" fill="#E2E3E4"/>
<path d="M151.021 28.1518C151.917 28.1518 152.642 27.4265 152.642 26.5317C152.642 25.637 151.917 24.9116 151.021 24.9116C150.126 24.9116 149.4 25.637 149.4 26.5317C149.4 27.4265 150.126 28.1518 151.021 28.1518Z" fill="#E2E3E4"/>
<path d="M159.226 28.1518C160.122 28.1518 160.847 27.4265 160.847 26.5317C160.847 25.637 160.122 24.9116 159.226 24.9116C158.331 24.9116 157.605 25.637 157.605 26.5317C157.605 27.4265 158.331 28.1518 159.226 28.1518Z" fill="#E2E3E4"/>
<path d="M167.433 28.1518C168.328 28.1518 169.054 27.4265 169.054 26.5317C169.054 25.637 168.328 24.9116 167.433 24.9116C166.537 24.9116 165.812 25.637 165.812 26.5317C165.812 27.4265 166.537 28.1518 167.433 28.1518Z" fill="#E2E3E4"/>
<path d="M175.638 28.1518C176.533 28.1518 177.259 27.4265 177.259 26.5317C177.259 25.637 176.533 24.9116 175.638 24.9116C174.742 24.9116 174.017 25.637 174.017 26.5317C174.017 27.4265 174.742 28.1518 175.638 28.1518Z" fill="#E2E3E4"/>
<path d="M183.843 28.1518C184.738 28.1518 185.464 27.4265 185.464 26.5317C185.464 25.637 184.738 24.9116 183.843 24.9116C182.947 24.9116 182.222 25.637 182.222 26.5317C182.222 27.4265 182.947 28.1518 183.843 28.1518Z" fill="#E2E3E4"/>
<path d="M192.049 28.1518C192.944 28.1518 193.67 27.4265 193.67 26.5317C193.67 25.637 192.944 24.9116 192.049 24.9116C191.153 24.9116 190.428 25.637 190.428 26.5317C190.428 27.4265 191.153 28.1518 192.049 28.1518Z" fill="#E2E3E4"/>
<path d="M200.254 28.1518C201.149 28.1518 201.875 27.4265 201.875 26.5317C201.875 25.637 201.149 24.9116 200.254 24.9116C199.359 24.9116 198.633 25.637 198.633 26.5317C198.633 27.4265 199.359 28.1518 200.254 28.1518Z" fill="#E2E3E4"/>
<path d="M159.226 36.4555C160.122 36.4555 160.847 35.7302 160.847 34.8354C160.847 33.9407 160.122 33.2153 159.226 33.2153C158.331 33.2153 157.605 33.9407 157.605 34.8354C157.605 35.7302 158.331 36.4555 159.226 36.4555Z" fill="#E2E3E4"/>
<path d="M167.433 36.4555C168.328 36.4555 169.054 35.7302 169.054 34.8354C169.054 33.9407 168.328 33.2153 167.433 33.2153C166.537 33.2153 165.812 33.9407 165.812 34.8354C165.812 35.7302 166.537 36.4555 167.433 36.4555Z" fill="#E2B350"/>
<path d="M175.638 36.4555C176.533 36.4555 177.259 35.7302 177.259 34.8354C177.259 33.9407 176.533 33.2153 175.638 33.2153C174.742 33.2153 174.017 33.9407 174.017 34.8354C174.017 35.7302 174.742 36.4555 175.638 36.4555Z" fill="#E2E3E4"/>
<path d="M183.843 36.4555C184.738 36.4555 185.464 35.7302 185.464 34.8354C185.464 33.9407 184.738 33.2153 183.843 33.2153C182.947 33.2153 182.222 33.9407 182.222 34.8354C182.222 35.7302 182.947 36.4555 183.843 36.4555Z" fill="#E2E3E4"/>
<path d="M192.049 36.4555C192.944 36.4555 193.67 35.7302 193.67 34.8354C193.67 33.9407 192.944 33.2153 192.049 33.2153C191.153 33.2153 190.428 33.9407 190.428 34.8354C190.428 35.7302 191.153 36.4555 192.049 36.4555Z" fill="#E2E3E4"/>
<path d="M200.254 36.4555C201.149 36.4555 201.875 35.7302 201.875 34.8354C201.875 33.9407 201.149 33.2153 200.254 33.2153C199.359 33.2153 198.633 33.9407 198.633 34.8354C198.633 35.7302 199.359 36.4555 200.254 36.4555Z" fill="#E2E3E4"/>
<path d="M159.226 44.7592C160.122 44.7592 160.847 44.0339 160.847 43.1391C160.847 42.2444 160.122 41.519 159.226 41.519C158.331 41.519 157.605 42.2444 157.605 43.1391C157.605 44.0339 158.331 44.7592 159.226 44.7592Z" fill="#E2E3E4"/>
<path d="M167.433 44.7592C168.328 44.7592 169.054 44.0339 169.054 43.1391C169.054 42.2444 168.328 41.519 167.433 41.519C166.537 41.519 165.812 42.2444 165.812 43.1391C165.812 44.0339 166.537 44.7592 167.433 44.7592Z" fill="#E2E3E4"/>
<path d="M175.638 44.7592C176.533 44.7592 177.259 44.0339 177.259 43.1391C177.259 42.2444 176.533 41.519 175.638 41.519C174.742 41.519 174.017 42.2444 174.017 43.1391C174.017 44.0339 174.742 44.7592 175.638 44.7592Z" fill="#E2E3E4"/>
<path d="M183.843 44.7592C184.738 44.7592 185.464 44.0339 185.464 43.1391C185.464 42.2444 184.738 41.519 183.843 41.519C182.947 41.519 182.222 42.2444 182.222 43.1391C182.222 44.0339 182.947 44.7592 183.843 44.7592Z" fill="#E2E3E4"/>
<path d="M192.049 44.7592C192.944 44.7592 193.67 44.0339 193.67 43.1391C193.67 42.2444 192.944 41.519 192.049 41.519C191.153 41.519 190.428 42.2444 190.428 43.1391C190.428 44.0339 191.153 44.7592 192.049 44.7592Z" fill="#E2B350"/>
<path d="M200.254 44.7592C201.149 44.7592 201.875 44.0339 201.875 43.1391C201.875 42.2444 201.149 41.519 200.254 41.519C199.359 41.519 198.633 42.2444 198.633 43.1391C198.633 44.0339 199.359 44.7592 200.254 44.7592Z" fill="#E2E3E4"/>
<path d="M159.226 53.0629C160.122 53.0629 160.847 52.3376 160.847 51.4428C160.847 50.5481 160.122 49.8228 159.226 49.8228C158.331 49.8228 157.605 50.5481 157.605 51.4428C157.605 52.3376 158.331 53.0629 159.226 53.0629Z" fill="#E2E3E4"/>
<path d="M167.433 53.0629C168.328 53.0629 169.054 52.3376 169.054 51.4428C169.054 50.5481 168.328 49.8228 167.433 49.8228C166.537 49.8228 165.812 50.5481 165.812 51.4428C165.812 52.3376 166.537 53.0629 167.433 53.0629Z" fill="#E2E3E4"/>
<path d="M175.638 53.0629C176.533 53.0629 177.259 52.3376 177.259 51.4428C177.259 50.5481 176.533 49.8228 175.638 49.8228C174.742 49.8228 174.017 50.5481 174.017 51.4428C174.017 52.3376 174.742 53.0629 175.638 53.0629Z" fill="#E2E3E4"/>
<path d="M183.843 53.0629C184.738 53.0629 185.464 52.3376 185.464 51.4428C185.464 50.5481 184.738 49.8228 183.843 49.8228C182.947 49.8228 182.222 50.5481 182.222 51.4428C182.222 52.3376 182.947 53.0629 183.843 53.0629Z" fill="#E2E3E4"/>
<path d="M192.049 53.0629C192.944 53.0629 193.67 52.3376 193.67 51.4428C193.67 50.5481 192.944 49.8228 192.049 49.8228C191.153 49.8228 190.428 50.5481 190.428 51.4428C190.428 52.3376 191.153 53.0629 192.049 53.0629Z" fill="#E2E3E4"/>
<path d="M200.254 53.0629C201.149 53.0629 201.875 52.3376 201.875 51.4428C201.875 50.5481 201.149 49.8228 200.254 49.8228C199.359 49.8228 198.633 50.5481 198.633 51.4428C198.633 52.3376 199.359 53.0629 200.254 53.0629Z" fill="#E2E3E4"/>
<path d="M126.405 61.3671C127.3 61.3671 128.026 60.6418 128.026 59.747C128.026 58.8523 127.3 58.127 126.405 58.127C125.51 58.127 124.784 58.8523 124.784 59.747C124.784 60.6418 125.51 61.3671 126.405 61.3671Z" fill="#E2E3E4"/>
<path d="M134.61 61.3671C135.505 61.3671 136.231 60.6418 136.231 59.747C136.231 58.8523 135.505 58.127 134.61 58.127C133.715 58.127 132.989 58.8523 132.989 59.747C132.989 60.6418 133.715 61.3671 134.61 61.3671Z" fill="#E2E3E4"/>
<path d="M142.815 61.3671C143.711 61.3671 144.436 60.6418 144.436 59.747C144.436 58.8523 143.711 58.127 142.815 58.127C141.92 58.127 141.194 58.8523 141.194 59.747C141.194 60.6418 141.92 61.3671 142.815 61.3671Z" fill="#E2E3E4"/>
<path d="M151.021 61.3671C151.917 61.3671 152.642 60.6418 152.642 59.747C152.642 58.8523 151.917 58.127 151.021 58.127C150.126 58.127 149.4 58.8523 149.4 59.747C149.4 60.6418 150.126 61.3671 151.021 61.3671Z" fill="#E2E3E4"/>
<path d="M159.226 61.3671C160.122 61.3671 160.847 60.6418 160.847 59.747C160.847 58.8523 160.122 58.127 159.226 58.127C158.331 58.127 157.605 58.8523 157.605 59.747C157.605 60.6418 158.331 61.3671 159.226 61.3671Z" fill="#E2E3E4"/>
<path d="M167.433 61.3671C168.328 61.3671 169.054 60.6418 169.054 59.747C169.054 58.8523 168.328 58.127 167.433 58.127C166.537 58.127 165.812 58.8523 165.812 59.747C165.812 60.6418 166.537 61.3671 167.433 61.3671Z" fill="#E2E3E4"/>
<path d="M175.638 61.3671C176.533 61.3671 177.259 60.6418 177.259 59.747C177.259 58.8523 176.533 58.127 175.638 58.127C174.742 58.127 174.017 58.8523 174.017 59.747C174.017 60.6418 174.742 61.3671 175.638 61.3671Z" fill="#E2E3E4"/>
<path d="M183.843 61.3671C184.738 61.3671 185.464 60.6418 185.464 59.747C185.464 58.8523 184.738 58.127 183.843 58.127C182.947 58.127 182.222 58.8523 182.222 59.747C182.222 60.6418 182.947 61.3671 183.843 61.3671Z" fill="#E2E3E4"/>
<path d="M192.049 61.3671C192.944 61.3671 193.67 60.6418 193.67 59.747C193.67 58.8523 192.944 58.127 192.049 58.127C191.153 58.127 190.428 58.8523 190.428 59.747C190.428 60.6418 191.153 61.3671 192.049 61.3671Z" fill="#E2E3E4"/>
<path d="M200.254 61.3671C201.149 61.3671 201.875 60.6418 201.875 59.747C201.875 58.8523 201.149 58.127 200.254 58.127C199.359 58.127 198.633 58.8523 198.633 59.747C198.633 60.6418 199.359 61.3671 200.254 61.3671Z" fill="#E2E3E4"/>
<path d="M128.025 68.0571C128.029 67.1624 127.306 66.4341 126.411 66.4305C125.515 66.4268 124.787 67.1492 124.783 68.044C124.779 68.9387 125.502 69.667 126.397 69.6706C127.293 69.6743 128.021 68.9519 128.025 68.0571Z" fill="#E2E3E4"/>
<path d="M134.61 69.6709C135.505 69.6709 136.231 68.9455 136.231 68.0508C136.231 67.156 135.505 66.4307 134.61 66.4307C133.715 66.4307 132.989 67.156 132.989 68.0508C132.989 68.9455 133.715 69.6709 134.61 69.6709Z" fill="#E2E3E4"/>
<path d="M128.025 76.3608C128.029 75.4661 127.306 74.7378 126.411 74.7342C125.515 74.7306 124.787 75.4529 124.783 76.3477C124.779 77.2424 125.502 77.9707 126.397 77.9744C127.293 77.978 128.021 77.2556 128.025 76.3608Z" fill="#E2E3E4"/>
<path d="M134.61 77.9746C135.505 77.9746 136.231 77.2492 136.231 76.3545C136.231 75.4597 135.505 74.7344 134.61 74.7344C133.715 74.7344 132.989 75.4597 132.989 76.3545C132.989 77.2492 133.715 77.9746 134.61 77.9746Z" fill="#E2E3E4"/>
<path d="M151.021 77.9746C151.917 77.9746 152.642 77.2492 152.642 76.3545C152.642 75.4597 151.917 74.7344 151.021 74.7344C150.126 74.7344 149.4 75.4597 149.4 76.3545C149.4 77.2492 150.126 77.9746 151.021 77.9746Z" fill="#E2E3E4"/>
<path d="M232.81 19.114H168.573C168.258 19.1136 167.956 18.9882 167.733 18.7653C167.51 18.5425 167.384 18.2403 167.384 17.9251V1.99946C167.384 1.68425 167.51 1.38206 167.733 1.15918C167.956 0.936292 168.258 0.810917 168.573 0.810547H232.81C233.126 0.810917 233.428 0.936292 233.651 1.15918C233.874 1.38206 234 1.68425 234 1.99946V17.9251C234 18.2403 233.874 18.5425 233.651 18.7653C233.428 18.9882 233.126 19.1136 232.81 19.114ZM168.573 1.28611C168.384 1.28632 168.203 1.36154 168.069 1.49527C167.935 1.62901 167.86 1.81033 167.86 1.99946V17.9251C167.86 18.1142 167.935 18.2955 168.069 18.4292C168.203 18.563 168.384 18.6382 168.573 18.6384H232.81C233 18.6382 233.181 18.563 233.315 18.4292C233.449 18.2955 233.524 18.1142 233.524 17.9251V1.99946C233.524 1.81033 233.449 1.62901 233.315 1.49527C233.181 1.36154 233 1.28632 232.81 1.28611H168.573Z" fill="#E2E3E4"/>
<path d="M176.9 14.9556C179.66 14.9556 181.897 12.72 181.897 9.96218C181.897 7.20438 179.66 4.96875 176.9 4.96875C174.141 4.96875 171.904 7.20438 171.904 9.96218C171.904 12.72 174.141 14.9556 176.9 14.9556Z" fill="#E2B350"/>
<path d="M188.439 6.6333C188.218 6.6333 188.007 6.72098 187.85 6.87706C187.694 7.03313 187.606 7.24482 187.606 7.46554C187.606 7.68626 187.694 7.89795 187.85 8.05402C188.007 8.2101 188.218 8.29778 188.439 8.29778H210.565C210.786 8.29778 210.998 8.2101 211.154 8.05402C211.31 7.89795 211.398 7.68626 211.398 7.46554C211.398 7.24482 211.31 7.03313 211.154 6.87706C210.998 6.72098 210.786 6.6333 210.565 6.6333H188.439Z" fill="#E2E3E4"/>
<path d="M188.439 11.6265C188.218 11.6265 188.007 11.7141 187.85 11.8702C187.694 12.0263 187.606 12.238 187.606 12.4587C187.606 12.6794 187.694 12.8911 187.85 13.0472C188.007 13.2033 188.218 13.2909 188.439 13.2909H227.695C227.916 13.2909 228.128 13.2033 228.284 13.0472C228.44 12.8911 228.528 12.6794 228.528 12.4587C228.528 12.238 228.44 12.0263 228.284 11.8702C228.128 11.7141 227.916 11.6265 227.695 11.6265H188.439Z" fill="#E2E3E4"/>
<path d="M150.255 51.4524H86.0177C85.7023 51.452 85.4 51.3266 85.177 51.1037C84.9539 50.8808 84.8285 50.5787 84.8281 50.2634V34.3378C84.8285 34.0226 84.9539 33.7204 85.177 33.4976C85.4 33.2747 85.7023 33.1493 86.0177 33.1489H150.255C150.57 33.1493 150.872 33.2747 151.095 33.4976C151.318 33.7204 151.444 34.0226 151.444 34.3378V50.2634C151.444 50.5787 151.318 50.8808 151.095 51.1037C150.872 51.3266 150.57 51.452 150.255 51.4524ZM86.0177 33.6245C85.8285 33.6247 85.647 33.6999 85.5132 33.8337C85.3794 33.9674 85.3042 34.1487 85.304 34.3378V50.2634C85.3042 50.4526 85.3794 50.6339 85.5132 50.7676C85.647 50.9014 85.8285 50.9766 86.0177 50.9768H150.255C150.444 50.9766 150.625 50.9014 150.759 50.7676C150.893 50.6339 150.968 50.4526 150.968 50.2634V34.3378C150.968 34.1487 150.893 33.9674 150.759 33.8337C150.625 33.6999 150.444 33.6247 150.255 33.6245H86.0177Z" fill="#3F3D56"/>
<path d="M94.3439 47.294C97.1032 47.294 99.34 45.0584 99.34 42.3006C99.34 39.5428 97.1032 37.3071 94.3439 37.3071C91.5845 37.3071 89.3477 39.5428 89.3477 42.3006C89.3477 45.0584 91.5845 47.294 94.3439 47.294Z" fill="#E2B350"/>
<path d="M105.883 38.9717C105.663 38.9717 105.451 39.0594 105.295 39.2154C105.139 39.3715 105.051 39.5832 105.051 39.8039C105.051 40.0246 105.139 40.2363 105.295 40.3924C105.451 40.5485 105.663 40.6362 105.883 40.6362H128.961C129.182 40.6362 129.394 40.5485 129.55 40.3924C129.706 40.2363 129.794 40.0246 129.794 39.8039C129.794 39.5832 129.706 39.3715 129.55 39.2154C129.394 39.0594 129.182 38.9717 128.961 38.9717H105.883Z" fill="#E2E3E4"/>
<path d="M105.883 43.9648C105.663 43.9648 105.451 44.0525 105.295 44.2086C105.139 44.3647 105.051 44.5764 105.051 44.7971C105.051 45.0178 105.139 45.2295 105.295 45.3856C105.451 45.5416 105.663 45.6293 105.883 45.6293H145.139C145.36 45.6293 145.572 45.5416 145.728 45.3856C145.884 45.2295 145.972 45.0178 145.972 44.7971C145.972 44.5764 145.884 44.3647 145.728 44.2086C145.572 44.0525 145.36 43.9648 145.139 43.9648H105.883Z" fill="#E2E3E4"/>
<path d="M208.305 86.4065H144.068C143.753 86.4061 143.451 86.2807 143.228 86.0578C143.005 85.8349 142.879 85.5328 142.879 85.2175V69.2919C142.879 68.9767 143.005 68.6745 143.228 68.4517C143.451 68.2288 143.753 68.1034 144.068 68.103H208.305C208.621 68.1034 208.923 68.2288 209.146 68.4517C209.369 68.6745 209.495 68.9767 209.495 69.2919V85.2175C209.495 85.5328 209.369 85.8349 209.146 86.0578C208.923 86.2807 208.621 86.4061 208.305 86.4065ZM144.068 68.5786C143.879 68.5788 143.698 68.654 143.564 68.7878C143.43 68.9215 143.355 69.1028 143.355 69.2919V85.2175C143.355 85.4067 143.43 85.588 143.564 85.7217C143.698 85.8555 143.879 85.9307 144.068 85.9309H208.305C208.495 85.9307 208.676 85.8555 208.81 85.7217C208.944 85.588 209.019 85.4067 209.019 85.2175V69.2919C209.019 69.1028 208.944 68.9215 208.81 68.7878C208.676 68.654 208.495 68.5788 208.305 68.5786H144.068Z" fill="#E2E3E4"/>
<path d="M152.396 82.2481C155.155 82.2481 157.392 80.0125 157.392 77.2547C157.392 74.4969 155.155 72.2612 152.396 72.2612C149.636 72.2612 147.399 74.4969 147.399 77.2547C147.399 80.0125 149.636 82.2481 152.396 82.2481Z" fill="#E2B350"/>
<path d="M163.934 73.9258C163.713 73.9258 163.502 74.0135 163.345 74.1695C163.189 74.3256 163.102 74.5373 163.102 74.758C163.102 74.9787 163.189 75.1904 163.345 75.3465C163.502 75.5026 163.713 75.5903 163.934 75.5903H185.109C185.329 75.5903 185.541 75.5026 185.697 75.3465C185.854 75.1904 185.941 74.9787 185.941 74.758C185.941 74.5373 185.854 74.3256 185.697 74.1695C185.541 74.0135 185.329 73.9258 185.109 73.9258H163.934Z" fill="#E2E3E4"/>
<path d="M163.934 78.9189C163.713 78.9189 163.502 79.0066 163.345 79.1627C163.189 79.3188 163.102 79.5305 163.102 79.7512C163.102 79.9719 163.189 80.1836 163.345 80.3397C163.502 80.4957 163.713 80.5834 163.934 80.5834H203.19C203.411 80.5834 203.623 80.4957 203.779 80.3397C203.935 80.1836 204.023 79.9719 204.023 79.7512C204.023 79.5305 203.935 79.3188 203.779 79.1627C203.623 79.0066 203.411 78.9189 203.19 78.9189H163.934Z" fill="#E2E3E4"/>
</g>
<defs>
<linearGradient id="paint0_linear_53_351" x1="45.8436" y1="44.8998" x2="45.8436" y2="25.4463" gradientUnits="userSpaceOnUse">
<stop stop-color="#808080" stop-opacity="0.25"/>
<stop offset="0.54" stop-color="#808080" stop-opacity="0.12"/>
<stop offset="1" stop-color="#808080" stop-opacity="0.1"/>
</linearGradient>
<clipPath id="clip0_53_351">
<rect width="234" height="137" fill="white"/>
</clipPath>
</defs>
</svg>
