<svg width="130" height="129" viewBox="0 0 130 129" fill="none" xmlns="http://www.w3.org/2000/svg">
<g clip-path="url(#clip0_53_448)">
<path d="M130 128.705C130 128.868 129.869 129 129.705 129H0.294852C0.131328 129 0 128.868 0 128.705C0 128.541 0.131328 128.41 0.294852 128.41H129.705C129.869 128.41 130 128.541 130 128.705Z" fill="#3F3D56"/>
<path d="M89.8287 114.337L91.3153 120.537L86.8554 121.777L85.8643 115.081L89.8287 114.337Z" fill="#FFB6B6"/>
<path d="M97.014 94.25L92.3063 98.2178L89.333 102.93L93.5452 105.657L100.731 97.4738L97.014 94.25Z" fill="#FFB6B6"/>
<path d="M95.5279 53.332L99.4923 66.7234C99.4923 66.7234 117.084 82.0986 115.35 85.3224C113.615 88.5462 101.97 97.4738 101.97 97.4738C101.97 97.4738 102.834 100.329 100.296 99.1492C97.7578 97.9698 95.0323 94.7459 95.0323 94.7459C95.0323 94.7459 95.0323 92.2661 96.2712 92.762C97.5101 93.258 103.209 86.5624 103.209 86.5624L90.8202 75.1549V113.299C90.8202 113.299 93.7935 115.901 90.8202 116.111C87.8469 116.321 85.1213 116.817 85.1213 116.817C85.1213 116.817 81.6525 115.577 82.8914 114.337L79.1747 94.002L76.4492 69.2032L78.4314 56.3079L95.5279 53.332Z" fill="#2F2E41"/>
<path d="M87.5989 119.793C87.5989 119.793 87.8467 118.801 88.8378 118.801H91.8647C91.8647 118.801 92.8022 123.017 92.5544 123.017C92.3066 123.017 96.5188 128.472 92.0588 128.72C87.5989 128.968 86.36 128.472 86.36 128.472L85.8645 126.515C85.8645 126.515 85.1212 125.248 85.3689 124.257C85.6167 123.265 87.5989 119.793 87.5989 119.793Z" fill="#2F2E41"/>
<path d="M93.7927 103.673C93.7927 103.673 96.6385 103.628 95.9589 104.395C95.2793 105.161 94.0404 106.401 94.0404 106.401C94.0404 106.401 91.0933 112.353 89.7175 111.237C88.3416 110.121 86.1116 97.7215 86.855 96.2335C87.5983 94.7456 88.5894 94.7456 88.5894 94.7456L93.1606 97.4972C93.1606 97.4972 90.3238 104.417 93.7927 103.673Z" fill="#2F2E41"/>
<path d="M86.8559 32.2527L87.847 26.0531L81.1571 23.3252L80.166 32.7487L86.8559 32.2527Z" fill="#FFB6B6"/>
<path opacity="0.1" d="M86.8559 32.2527L87.847 26.0531L81.1571 23.3252L80.166 32.7487L86.8559 32.2527Z" fill="black"/>
<path d="M79.7942 31.3848L87.723 29.4009L96.1474 32.1287C96.1474 32.1287 99.864 42.5442 98.6251 46.264C97.3863 49.9838 97.3863 57.2497 97.3863 57.2497C97.3863 57.2497 97.2624 54.0756 90.0769 56.3075C82.8914 58.5394 77.6882 58.2914 77.6882 58.2914L77.4404 49.3639L74.3278 41.434C72.9973 38.0446 74.4313 34.1963 77.6544 32.5066L79.7942 31.3848Z" fill="#E6E6E6"/>
<path d="M116.19 60.5982C117.309 61.9397 117.524 63.6049 116.671 64.3174C115.818 65.0298 114.22 64.5198 113.101 63.1777C112.646 62.6477 112.325 62.0165 112.165 61.3369L107.496 55.593L109.77 53.751L114.548 59.3469C115.187 59.6267 115.75 60.0558 116.19 60.5982Z" fill="#FFB6B6"/>
<path d="M95.787 32.208L94.1621 38.6498L102.115 51.3911L110.234 59.5576L112.865 57.3726L104.677 47.1762L98.4709 34.0385L95.787 32.208Z" fill="#E6E6E6"/>
<path d="M114.719 25.9907C120.382 25.5718 124.544 19.4191 124.015 12.2482C123.485 5.07741 118.465 -0.396116 112.802 0.0227771C107.138 0.44167 102.976 6.59436 103.506 13.7652C104.035 20.936 109.055 26.4095 114.719 25.9907Z" fill="#E2B350"/>
<path d="M114.503 25.9907H114.008V75.4488H114.503V25.9907Z" fill="#2F2E41"/>
<path d="M114.626 24.9463L114.686 26.6988L115.477 28.3212L112.176 28.1527L113.564 26.7556L113.407 25.1632L114.626 24.9463Z" fill="#E2B350"/>
<path d="M85.1649 28.0466C88.9326 28.0466 91.987 24.9896 91.987 21.2186C91.987 17.4476 88.9326 14.3906 85.1649 14.3906C81.3971 14.3906 78.3428 17.4476 78.3428 21.2186C78.3428 24.9896 81.3971 28.0466 85.1649 28.0466Z" fill="#FFB6B6"/>
<path d="M84.6207 12.0386C84.8181 12.154 85.0825 11.9795 85.1458 11.7596C85.2091 11.5398 85.1353 11.3064 85.0622 11.0897L84.6941 9.99849C84.4331 9.22462 84.156 8.42369 83.5906 7.83467C82.7373 6.94564 81.3811 6.71948 80.1602 6.88333C78.5924 7.09374 77.0456 7.94341 76.3166 9.34846C75.5876 10.7535 75.898 12.714 77.2152 13.5907C75.3379 15.7442 74.6835 18.1443 74.7868 21.0004C74.8901 23.8566 77.9999 26.4852 80.028 28.4972C80.4809 28.2224 80.8926 26.9347 80.6435 26.4669C80.3945 25.9991 80.7513 25.4572 80.4429 25.0263C80.1344 24.5954 79.8764 25.2815 80.1882 24.8531C80.385 24.5827 79.617 23.9607 79.9095 23.7989C81.3242 23.0163 81.7947 21.2514 82.6832 19.8999C83.7549 18.2698 85.5892 17.1658 87.5303 16.9827C88.5996 16.8818 89.729 17.0645 90.6054 17.6858C91.4819 18.3071 92.0493 19.4174 91.8461 20.4729C92.3724 19.938 92.6344 19.1541 92.5356 18.4099C92.4368 17.6657 91.9793 16.9775 91.3316 16.5987C91.7254 15.2952 91.3881 13.7959 90.474 12.7872C89.5599 11.7786 85.8519 11.9504 84.5174 12.2158" fill="#2F2E41"/>
<path d="M84.413 17.0225C82.6455 17.2134 81.3693 18.7458 80.2917 20.1609C79.6706 20.9765 79.02 21.8773 79.0356 22.9027C79.0513 23.9394 79.7439 24.8286 80.0749 25.8111C80.6159 27.417 80.0886 29.3277 78.8008 30.4281C80.0733 30.6697 81.4489 29.7148 81.6686 28.4372C81.9244 26.95 80.7979 25.5146 80.9313 24.0114C81.0489 22.6871 82.0916 21.6678 82.9781 20.6776C83.8645 19.6874 84.6971 18.3735 84.2893 17.1081" fill="#2F2E41"/>
<path d="M77.9065 58.1675H26.9469C21.1681 58.1675 16.4834 62.8562 16.4834 68.64V118.097C16.4834 123.881 21.1681 128.569 26.9469 128.569H77.9065C83.6853 128.569 88.37 123.881 88.37 118.097V68.64C88.37 62.8562 83.6853 58.1675 77.9065 58.1675Z" fill="white"/>
<path d="M77.9072 128.817H26.9476C21.0414 128.817 16.2363 124.008 16.2363 118.097V68.6399C16.2363 62.7287 21.0414 57.9194 26.9476 57.9194H77.9072C83.8134 57.9194 88.6185 62.7287 88.6185 68.6399V118.097C88.6185 124.008 83.8134 128.817 77.9072 128.817ZM26.9476 58.4154C21.3146 58.4154 16.7319 63.0021 16.7319 68.6399V118.097C16.7319 123.735 21.3146 128.321 26.9476 128.321H77.9072C83.5402 128.321 88.1229 123.735 88.1229 118.097V68.6399C88.1229 63.0021 83.5402 58.4154 77.9072 58.4154H26.9476Z" fill="#3F3D56"/>
<path d="M72.5303 63.0328C73.1829 63.0328 73.7119 62.5033 73.7119 61.8501C73.7119 61.197 73.1829 60.6675 72.5303 60.6675C71.8777 60.6675 71.3486 61.197 71.3486 61.8501C71.3486 62.5033 71.8777 63.0328 72.5303 63.0328Z" fill="#3F3D56"/>
<path d="M75.7793 63.0328C76.4319 63.0328 76.9609 62.5033 76.9609 61.8501C76.9609 61.197 76.4319 60.6675 75.7793 60.6675C75.1267 60.6675 74.5977 61.197 74.5977 61.8501C74.5977 62.5033 75.1267 63.0328 75.7793 63.0328Z" fill="#3F3D56"/>
<path d="M79.0293 63.0328C79.6819 63.0328 80.211 62.5033 80.211 61.8501C80.211 61.197 79.6819 60.6675 79.0293 60.6675C78.3767 60.6675 77.8477 61.197 77.8477 61.8501C77.8477 62.5033 78.3767 63.0328 79.0293 63.0328Z" fill="#3F3D56"/>
<path d="M25.2771 111.255C24.91 111.255 24.6113 111.554 24.6113 111.921C24.6113 112.1 24.6805 112.266 24.8059 112.388C24.9325 112.518 25.0983 112.588 25.2771 112.588H78.573C78.9401 112.588 79.2388 112.289 79.2388 111.921C79.2388 111.742 79.1696 111.576 79.0442 111.454C78.9176 111.324 78.7518 111.255 78.573 111.255H25.2771Z" fill="#E6E6E6"/>
<path d="M53.775 111.033V112.81H25.2773C25.0332 112.81 24.8113 112.712 24.6515 112.547C24.4873 112.388 24.3896 112.165 24.3896 111.921C24.3896 111.432 24.7891 111.033 25.2773 111.033L53.775 111.033Z" fill="#E2B350"/>
<path d="M77.4635 107.701H68.5869C67.608 107.701 66.8115 106.904 66.8115 105.924C66.8115 104.944 67.608 104.147 68.5869 104.147H77.4635C78.4424 104.147 79.2389 104.944 79.2389 105.924C79.2389 106.904 78.4424 107.701 77.4635 107.701Z" fill="#E6E6E6"/>
<path d="M44.1148 108.971L37.9096 88.1035L37.4346 88.245L43.6181 109.039" fill="#2F2E41"/>
<path d="M44.3293 61.4804C49.9928 61.0615 54.1548 54.9088 53.6253 47.738C53.0958 40.5672 48.0754 35.0936 42.4119 35.5125C36.7484 35.9314 32.5864 42.0841 33.1159 49.2549C33.6454 56.4258 38.6658 61.8993 44.3293 61.4804Z" fill="#E2B350"/>
<path d="M44.1147 61.4805H43.6191V110.939H44.1147V61.4805Z" fill="#2F2E41"/>
<path d="M38.1883 87.499L38.7446 89.1618L39.9653 90.491L36.7529 91.2717L37.685 89.5366L37.0809 88.0551L38.1883 87.499Z" fill="#E2B350"/>
<path d="M44.2378 60.436L44.2972 62.1886L45.0885 63.8109L41.7871 63.6424L43.1749 62.2454L43.018 60.6529L44.2378 60.436Z" fill="#E2B350"/>
<path d="M38.3554 87.9349C43.6595 85.9041 45.8784 78.8137 43.3116 72.0979C40.7448 65.3821 34.3641 61.5842 29.06 63.615C23.7559 65.6457 21.5369 72.7362 24.1037 79.452C26.6706 86.1677 33.0513 89.9657 38.3554 87.9349Z" fill="#E2B350"/>
<path d="M83.3788 55.629C85.0502 56.134 86.1447 57.4065 85.8234 58.4711C85.5021 59.5357 83.8868 59.989 82.2149 59.4835C81.5443 59.2908 80.9295 58.9401 80.422 58.4608L73.3672 56.2314L74.2552 53.4414L81.3194 55.4874C82.0073 55.3693 82.7135 55.4178 83.3788 55.629Z" fill="#FFB6B6"/>
<path d="M71.1221 37.3366L78.5553 31.8809L78.3076 42.2963L71.3699 51.2239L78.8031 54.1997L78.5553 58.4487C78.5553 58.4487 69.1399 56.1836 67.6533 55.9356C66.1666 55.6877 64.9277 52.2158 64.9277 52.2158L71.1221 37.3366Z" fill="#E6E6E6"/>
</g>
<defs>
<clipPath id="clip0_53_448">
<rect width="130" height="129" fill="white"/>
</clipPath>
</defs>
</svg>
