<?xml version="1.0" encoding="UTF-8"?>
<svg id="Warstwa_2" xmlns="http://www.w3.org/2000/svg" viewBox="0 0 217.6 148.95">
  <defs>
    <style>
      .cls-1 {
        fill: #e2b350;
      }
    </style>
  </defs>
  <g id="Warstwa_1-2" data-name="Warstwa_1">
    <g>
      <path class="cls-1" d="M153.89,29.37c-.68-2.53-1.78-5.05-1.98-7.64-.39-5.17,1.84-8.12,6.51-9.52,3.64-1.1,8.2.71,10.42,4.43,1.13,1.9,2.36,2.78,4.64,2.57,2.63-.25,5.32.12,7.95-.16,4.69-.5,8.42.88,12.17,3.92,6.74,5.47,13.99,10.32,21.01,15.43.88.64,1.71,1.34,2.98,2.35-3.69,2-7.34,1.45-10.82,1.73-.23.29-.46.58-.69.88,1.27.96,2.67,1.79,3.78,2.92,1.52,1.55,2.12,3.41,1.22,5.62-.93,2.3-2.38,4.26-4.86,4.39-5.12.26-10.27.03-15.4.1-10.71.16-20.87,6.89-22.44,18.7-.21,1.55-.49,3.09-.77,4.87-3.28-5.35-4.61-11.08-5.49-17.03-.87-5.9,1.55-10.83,3.67-16.04,1.02-2.5,3.64-2.6,4.74-4.92-3.86-.13-6.63,1.92-9.05,4.26-4.49,4.33-6.15,10.11-6.32,16.06-.15,5.29,1.26,10.47,3.33,15.46,2.95,7.1,6.16,14.17,8.27,21.53,3.66,12.77,1.08,24.45-7.94,34.46-.17.18-.24.26-.4.46-.15.19-.07.1-.85.98,0-1.8-.14-3.31.02-4.79.94-8.64-.39-17.02-3.05-25.19-2.83-8.66-6.39-17.11-8.7-25.91-2.12-8.06-3.14-16.48,1.52-24.28,4.3-7.21,10.18-12.63,18.05-15.74.46-.18.92-.38,1.48-.61-6.66-2.17-12.72-2.33-20.51,2.23-6.51,3.81-10.47,9.58-12.47,17.12-5.03-12.32,1.24-25.66,19.98-28.63ZM176.44,27.89c1.55,1.94,3.01,3.85,4.58,5.66.31.36,1.04.5,1.58.51,3.05.05,6.11.02,9.18.02-3.3-5.95-8.83-8.16-15.34-6.19ZM166.23,28.62c-.61-3.23-.78-5.63-1.58-7.79-.39-1.06-1.86-2.03-3.03-2.37-.73-.21-2.47.69-2.61,1.34-.25,1.13-.02,2.86.73,3.63,1.8,1.84,4.03,3.27,6.49,5.19Z"/>
      <path class="cls-1" d="M137.88,82.35v66.61c-2.86-2.42-5.46-4.51-7.95-6.73-7.07-6.32-14.04-12.75-21.15-19.02-1.39-1.23-1.33-2.03-.32-3.35,6.06-7.9,12.05-15.85,18.09-23.76,3.55-4.65,7.14-9.27,10.71-13.9.21.05.41.1.62.16Z"/>
      <path class="cls-1" d="M31.11,56.31c8.6-.68,17.09-1.33,25.12-2,3.8-.32,7.6-.77,11.4-1.14,5.05-.5,10.11-.96,15.16-1.49,8.08-.85,16.16-1.73,24.24-2.6,1.68-.18,3.36-.52,5.02-.45.95.04,2.1.55,2.74,1.24,1.23,1.34,2.16,2.95,3.4,4.72-6,1.65-11.83,3.32-17.69,4.84-11.8,3.07-23.63,6.07-35.45,9.06-4.99,1.26-10,2.46-15.02,3.6-.64.15-1.62.02-2.08-.39-5.18-4.59-10.29-9.26-15.41-13.91-.6-.59-.85-.84-1.42-1.47Z"/>
      <path class="cls-1" d="M60.44,82.49c22.5-7.44,44.51-14.71,66.52-21.98.12.18.35.71.47.89q-2.27,1.62-3.62,2.58c-11.21,7.96-22.82,15.33-34.28,22.91-4.02,2.66-8.17,5.11-12.28,7.64-.99.61-1.93,1.33-3.17.19-4.33-3.96-8.73-7.84-13.64-12.23Z"/>
      <path class="cls-1" d="M136.4,67.9c-12.57,15.53-25.14,31.06-37.96,46.9-3.52-3.2-6.51-5.83-9.34-8.61-.26-.26.19-1.75.71-2.22,3.5-3.11,7.06-6.16,10.68-9.12,6.84-5.58,13.72-11.12,20.62-16.63,4.74-3.78,9.55-7.48,14.32-11.22l.96.89Z"/>
      <path class="cls-1" d="M177.61,106.22c.06-9.15-4.47-16.94-3.63-25.57.55-5.73,2.54-10.8,7.13-14.55,1.2-.98,2.5-1.85,3.89-2.87,2.33,10.59,3.38,20.78-.31,30.83-1.54,4.19-3.47,8.25-7.08,12.16Z"/>
      <path class="cls-1" d="M147.05,5.78c14.09-10.25,33.64-6.39,40.16,7.75-1.08.01-1.91.03-2.76,0-2.64-.1-5.29-.27-7.92-.55-.67-.07-1.37-.58-1.9-1.06-3.94-3.54-8.45-5.86-13.78-6.09-4.52-.2-9.05-.04-13.8-.04Z"/>
      <path class="cls-1" d="M149.75,12.11c-.83,3.25-1.58,6.39-2.45,9.5-.17.61-.75,1.44-1.28,1.55-7.04,1.58-13.14,4.78-17.98,10.65-.39-10.58,11.89-22.33,21.71-21.7Z"/>
      <path class="cls-1" d="M194.53,60.92c4.4-1.93,9.06-.68,13.64-1.04-.48,3.34-3.46,6.7-6.25,7.12-.42.06-1-.15-1.32-.43-1.98-1.78-3.9-3.62-6.07-5.64Z"/>
      <path class="cls-1" d="M113.5,40.38c-5.85,0-11.21-.17-16.56.04-10.19.4-20.37,1.06-30.56,1.52-8.92.4-17.85.64-26.78,1.02-6.55.28-13.09.75-19.65.94-1.31.04-2.94-.47-3.93-1.31-5.01-4.26-9.78-8.73-14.67-13.13q-.24-.21-1.35-1.43,2.85,0,3.88,0c16.25.14,32.5.34,48.75.42,12.66.06,25.33,0,37.99-.07,6.58-.04,13.17-.16,19.75-.33,2.22-.06,3.32.59,3.16,3.06-.18,2.81-.04,5.63-.04,9.28Z"/>
    </g>
  </g>
</svg>