<svg width="175" height="112" viewBox="0 0 175 112" fill="none" xmlns="http://www.w3.org/2000/svg">
<g id="Group">
<path id="Vector" d="M134.165 111.88C156.718 111.88 175 96.0781 175 76.5841C175 57.0968 156.718 41.2951 134.165 41.2951C134.165 41.2951 134.363 28.1844 146.689 9.3147C148.058 5.53379 145.618 1.50745 141.239 0.331123C138.133 -0.513245 134.864 0.307503 132.753 2.21804C104.409 29.0052 93.3144 60.5319 93.3144 76.5841C93.3144 96.0781 111.596 111.88 134.165 111.88Z" fill="#121212"/>
<path id="Vector_2" d="M40.8509 111.88C63.4037 111.88 81.686 96.0778 81.686 76.5841C81.686 57.0968 63.4037 41.2951 40.8509 41.2951C40.8509 41.2951 41.0484 28.1844 53.375 9.3147C54.7442 5.53379 52.3031 1.50745 47.9251 0.331123C44.8185 -0.513245 41.5495 0.307503 39.4389 2.21804C11.0951 29.0052 0 60.5319 0 76.5841C0 96.0781 18.2824 111.88 40.8509 111.88Z" fill="#121212"/>
</g>
</svg>
