<svg width="37" height="38" viewBox="0 0 37 38" fill="none" xmlns="http://www.w3.org/2000/svg">
<path d="M33.6424 0H3.45828C1.60531 0 0.104492 1.54591 0.104492 3.45455V34.5455C0.104492 36.4541 1.60531 38 3.45828 38H33.6424C35.4953 38 36.9962 36.4541 36.9962 34.5455V3.45455C36.9962 1.54591 35.4953 0 33.6424 0ZM11.7656 31.0909H6.81878V14.6956H11.7656V31.0909ZM9.24189 12.3517C7.64716 12.3517 6.35763 11.02 6.35763 9.38082C6.35763 7.74164 7.64884 6.41164 9.24189 6.41164C10.8316 6.41164 12.1245 7.74336 12.1245 9.38082C12.1245 11.02 10.8316 12.3517 9.24189 12.3517ZM30.2953 31.0909H25.3518V23.1178C25.3518 21.2161 25.3183 18.7703 22.7811 18.7703C20.2071 18.7703 19.8113 20.8413 19.8113 22.9796V31.0909H14.8679V14.6956H19.6135V16.9359H19.6806C20.3412 15.6474 21.9544 14.288 24.3608 14.288C29.3696 14.288 30.2953 17.6838 30.2953 22.0987V31.0909Z" fill="#E2B350"/>
</svg>
