<svg width="68" height="73" viewBox="0 0 68 73" fill="none" xmlns="http://www.w3.org/2000/svg">
<g id="logo">
<path id="Vector" d="M48.9029 59.3878C48.9029 51.031 42.1043 44.2324 33.7478 44.2324C25.3913 44.2324 18.5928 51.031 18.5928 59.3878V62.311H48.9029L48.9029 59.3878Z" fill="#006CCF"/>
<path id="Vector_2" d="M0 17.877V32.9149C4.05822 32.8101 7.32783 29.4788 7.32783 25.3961C7.32783 21.313 4.05822 17.9817 0 17.877Z" fill="#FF5756"/>
<path id="Vector_3" d="M16.7758 51.4641C18.646 47.4745 21.8809 44.2497 25.8772 42.3916C21.8809 40.5335 18.646 37.3088 16.7758 33.3193C14.9057 37.3088 11.6706 40.5335 7.67432 42.3916C11.6706 44.2497 14.9057 47.4745 16.7758 51.4641Z" fill="#040507"/>
<path id="Vector_4" d="M50.7245 51.4752C52.5939 47.4805 55.8311 44.2516 59.831 42.3918C55.8311 40.532 52.5939 37.3031 50.7245 33.3086C48.8552 37.3031 45.6181 40.532 41.6182 42.3918C45.6181 44.2516 48.8552 47.4805 50.7245 51.4752Z" fill="#040507"/>
<path id="Vector_5" d="M14.9591 59.3882C14.9591 51.0972 8.26633 44.3437 0 44.2378V62.3114H14.9591V59.3882Z" fill="#006CCF"/>
<path id="Vector_6" d="M60.2822 25.3959C60.2822 29.418 63.5 32.7003 67.496 32.8101V17.9814C63.5 18.0912 60.2822 21.3738 60.2822 25.3959Z" fill="#FF5756"/>
<path id="Vector_7" d="M52.5464 59.3879V62.3111H67.4957V44.2378C59.2339 44.3489 52.5464 51.1001 52.5464 59.3879Z" fill="#006CCF"/>
<path id="Vector_8" d="M67.4958 14.4011V10.0547H0V14.2965C6.03239 14.402 10.9082 19.3389 10.9082 25.396C10.9082 31.453 6.03239 36.3897 0 36.4951V40.5461C8.26633 40.4402 14.9591 33.6867 14.9591 25.396H15.0124H18.5395H18.5928C18.5928 33.7525 25.3913 40.551 33.7478 40.551C42.1043 40.551 48.9029 33.7525 48.9029 25.396H48.9661H52.4832H52.5464C52.5464 33.6834 59.234 40.4347 67.4958 40.5458V36.3906C61.5253 36.28 56.7017 31.3924 56.7017 25.396C56.7017 19.3996 61.5253 14.5118 67.4958 14.4011ZM33.7478 37.1021C27.2931 37.1021 22.0417 31.8507 22.0417 25.396C22.0417 18.941 27.2931 13.6896 33.7478 13.6896C40.2025 13.6896 45.4539 18.941 45.4539 25.396C45.4539 31.8507 40.2025 37.1021 33.7478 37.1021Z" fill="#040507"/>
<path id="Vector_9" d="M33.7478 33.5218C38.2285 33.5218 41.8735 29.8767 41.8735 25.396C41.8735 20.9153 38.2285 17.27 33.7478 17.27C29.2671 17.27 25.6221 20.9153 25.6221 25.396C25.6221 29.8767 29.2671 33.5218 33.7478 33.5218Z" fill="#FF5756"/>
<g id="Group">
<g id="Group_2">
<path id="Vector_10" d="M0.288574 7.86709L3.7164 0H5.41346L8.81877 7.86709H6.86326L5.04258 3.6076C4.97513 3.44286 4.90944 3.27796 4.8459 3.11307C4.78214 2.94841 4.72033 2.77982 4.66045 2.60732C4.60041 2.43512 4.54421 2.26654 4.49186 2.10165C4.43936 1.93691 4.39074 1.77955 4.34577 1.62957L4.72787 1.61834C4.68293 1.79815 4.63235 1.97058 4.57616 2.13532C4.51996 2.30021 4.46185 2.46318 4.40196 2.62423C4.34192 2.78544 4.27835 2.94841 4.21089 3.11307C4.14347 3.27796 4.07605 3.44655 4.00859 3.61882L2.18792 7.86709L0.288574 7.86709ZM1.89573 6.40603L2.51387 4.96749H6.55981L7.02059 6.40603H1.89573Z" fill="#040507"/>
<path id="Vector_11" d="M10.4819 7.86709V0H12.3925V7.86709H10.4819ZM11.8081 5.73169L11.3473 4.11335L15.9102 0H18.2592L11.8081 5.73169ZM16.1125 7.86709L13.0106 3.93354L14.2469 2.74224L18.3828 7.86709H16.1125Z" fill="#040507"/>
<path id="Vector_12" d="M22.249 7.86709V1.68576H19.5967V0H26.8682V1.68576H24.1596V7.86709H22.249Z" fill="#040507"/>
<path id="Vector_13" d="M31.3297 7.86709V4.10213L31.4646 4.78769L27.8682 0H30.1272L32.8132 3.67502L31.8355 3.65257L34.3417 0H36.4883L33.1279 4.73149L33.2515 4.01219V7.86709H31.3297Z" fill="#040507"/>
<path id="Vector_14" d="M39.5898 7.86709L37.0723 0H39.039L40.2753 4.01219C40.3276 4.19199 40.3782 4.37749 40.427 4.56852C40.4757 4.75955 40.5206 4.95451 40.5619 5.15291C40.603 5.35156 40.6387 5.53698 40.6687 5.70925C40.6985 5.88168 40.721 6.02397 40.7361 6.13636H40.4214C40.4664 5.88905 40.515 5.64937 40.5675 5.41705C40.6199 5.18489 40.678 4.95258 40.7417 4.72027C40.8053 4.48811 40.8783 4.2558 40.9609 4.02341L42.1522 1.02272H43.7032L44.872 4.01219C44.9693 4.26702 45.0574 4.51794 45.1361 4.76516C45.2147 5.01247 45.2802 5.2467 45.3327 5.46763C45.3851 5.68872 45.4188 5.89659 45.4339 6.09138L45.1529 6.12506C45.1679 5.99775 45.1828 5.86853 45.1979 5.73738C45.2128 5.60631 45.2316 5.46955 45.2541 5.32711C45.2766 5.18489 45.3027 5.04245 45.3327 4.90008C45.3626 4.75778 45.3982 4.6098 45.4395 4.45613C45.4806 4.30262 45.5238 4.1471 45.5688 3.98974L46.8837 0H48.783L46.1307 7.86709H44.6697L42.7254 3.19179L42.9838 3.21424L41.1407 7.86709H39.5898Z" fill="#040507"/>
<path id="Vector_15" d="M50.5142 7.86709V0H52.2674L57.0214 5.6193L56.6955 5.56311C56.6505 5.30097 56.6168 5.05006 56.5943 4.81013C56.5718 4.57044 56.5511 4.33813 56.5325 4.11335C56.5137 3.88857 56.4988 3.66379 56.4875 3.43902C56.4763 3.21424 56.4707 2.97824 56.4707 2.73101C56.4707 2.48371 56.4707 2.22157 56.4707 1.94429V0H58.3251V7.86709H56.5494L51.6156 2.0679L52.1438 2.14654C52.1662 2.40891 52.1905 2.64491 52.2168 2.85463C52.243 3.06449 52.2655 3.26113 52.2843 3.44463C52.3029 3.62836 52.318 3.81186 52.3292 3.99535C52.3405 4.17901 52.3498 4.37188 52.3573 4.57413C52.3647 4.77647 52.3685 4.99755 52.3685 5.23725V7.86709L50.5142 7.86709Z" fill="#040507"/>
<path id="Vector_16" d="M61.0562 7.86709V0H67.17V1.62957H62.9105V6.23745H67.2824V7.86709H61.0562ZM62.0002 4.64155V3.09063H66.6643V4.64155H62.0002Z" fill="#040507"/>
</g>
</g>
<g id="Group_3">
<g id="Group_4">
<path id="Vector_17" d="M0.288574 72.8781V64.3398H2.36214V72.8781H0.288574ZM1.72787 70.5605L1.22777 68.8042L6.17994 64.3398H8.72917L1.72787 70.5605ZM6.39947 72.8781L3.03298 68.609L4.37469 67.316L8.86337 72.8781H6.39947Z" fill="#040507"/>
<path id="Vector_18" d="M14.6691 72.9998C13.9534 72.9998 13.3048 72.89 12.7236 72.6705C12.1421 72.451 11.6338 72.1399 11.1989 71.7374C10.7638 71.3349 10.4283 70.8653 10.1926 70.3286C9.95666 69.7919 9.83887 69.2064 9.83887 68.5722C9.83887 67.9379 9.95666 67.3524 10.1926 66.8157C10.4283 66.2791 10.7638 65.8095 11.1989 65.4069C11.6338 65.0044 12.1421 64.6933 12.7236 64.4738C13.3048 64.2543 13.9494 64.1445 14.6568 64.1445C15.3561 64.1445 15.9986 64.2543 16.5841 64.4738C17.1695 64.6933 17.6776 65.0044 18.1087 65.4069C18.5396 65.8095 18.873 66.2791 19.1089 66.8157C19.3447 67.3524 19.4626 67.9379 19.4626 68.5722C19.4626 69.1984 19.3447 69.7818 19.1089 70.3225C18.873 70.8634 18.5396 71.3349 18.1087 71.7374C17.6776 72.1399 17.1695 72.451 16.5841 72.6705C15.9985 72.89 15.3601 72.9998 14.6691 72.9998ZM14.6568 71.0482C15.0472 71.0482 15.407 70.9873 15.7363 70.8653C16.0656 70.7433 16.3523 70.5706 16.5962 70.3469C16.8402 70.1234 17.0271 69.8611 17.1573 69.5601C17.2873 69.2594 17.3525 68.9301 17.3525 68.5722C17.3525 68.2144 17.2873 67.8851 17.1573 67.5841C17.0271 67.2834 16.8402 67.0212 16.5962 66.7974C16.3523 66.5738 16.0656 66.401 15.7363 66.2791C15.407 66.157 15.0472 66.0961 14.6568 66.0961C14.2665 66.0961 13.9067 66.157 13.5774 66.2791C13.2481 66.401 12.9593 66.5759 12.7114 66.8035C12.4632 67.0313 12.2762 67.2956 12.1503 67.5964C12.0241 67.8973 11.9612 68.2226 11.9612 68.5722C11.9612 68.9301 12.0241 69.2594 12.1503 69.5601C12.2762 69.8611 12.4632 70.1234 12.7114 70.3469C12.9593 70.5706 13.2481 70.7433 13.5774 70.8652C13.9067 70.9873 14.2665 71.0482 14.6568 71.0482Z" fill="#040507"/>
<path id="Vector_19" d="M21.8779 72.8781V64.3398H26.086C26.7365 64.3398 27.2854 64.4233 27.7327 64.5899C28.1798 64.7567 28.5194 64.9966 28.7512 65.3096C28.9829 65.6227 29.0988 65.9987 29.0988 66.4378C29.0988 66.9177 28.9686 67.3263 28.7085 67.6637C28.4481 68.0012 28.066 68.2269 27.5619 68.3406L27.5741 68.1211C27.9481 68.2024 28.2835 68.3387 28.5804 68.5297C28.8771 68.7209 29.1129 68.9648 29.2878 69.2615C29.4626 69.5585 29.5501 69.9019 29.5501 70.2922C29.5501 70.7557 29.4605 71.1521 29.2817 71.4815C29.1028 71.8108 28.8589 72.0792 28.5499 72.2865C28.2408 72.4939 27.8931 72.6444 27.507 72.7378C27.1207 72.8314 26.7121 72.8781 26.2812 72.8781L21.8779 72.8781ZM23.8295 67.743H25.9153C26.1428 67.743 26.3441 67.7085 26.519 67.6393C26.6938 67.5703 26.828 67.4727 26.9216 67.3465C27.015 67.2205 27.0618 67.0681 27.0618 66.8892C27.0618 66.6208 26.952 66.4176 26.7325 66.2793C26.5129 66.1411 26.216 66.0719 25.8421 66.0719H23.8295V67.743ZM23.8295 71.146H26.2568C26.5088 71.146 26.7264 71.1115 26.9094 71.0423C27.0923 70.9734 27.2387 70.8676 27.3485 70.7252C27.4582 70.583 27.5131 70.4062 27.5131 70.1946C27.5131 69.9751 27.45 69.8003 27.3241 69.6702C27.1979 69.5402 27.0354 69.4445 26.8362 69.3835C26.6368 69.3225 26.4234 69.292 26.1958 69.292H23.8295L23.8295 71.146Z" fill="#040507"/>
<path id="Vector_20" d="M31.9526 72.8781V71.0973H33.7335V66.1207H31.9526V64.3398H37.6V66.1207H35.807V71.0973H37.6V72.8781H31.9526Z" fill="#040507"/>
<path id="Vector_21" d="M40.564 72.8781V64.3398H47.1994V66.1085H42.5765V71.1094H47.3213V72.8781H40.564ZM41.5885 69.3774V67.6942H46.6505V69.3774H41.5885Z" fill="#040507"/>
<path id="Vector_22" d="M52.0417 72.8781V66.1695H49.1631V64.3398H57.0548V66.1695H54.1153V72.8781H52.0417Z" fill="#040507"/>
<path id="Vector_23" d="M61.897 72.8781V68.7919L62.0433 69.536L58.1401 64.3398H60.5918L63.507 68.3284L62.4458 68.3041L65.1659 64.3398H67.4956L63.8486 69.475L63.9827 68.6943V72.8781H61.897Z" fill="#040507"/>
</g>
</g>
</g>
</svg>
