<svg width="236" height="1399" viewBox="0 0 236 1399" fill="none" xmlns="http://www.w3.org/2000/svg">
<path d="M78.2667 2H128C155.614 2 178 24.3858 178 52V98.4048C178 126.019 155.614 148.405 128 148.405H52C24.3858 148.405 2 170.791 2 198.405V238C2 265.614 24.3858 288 52 288H85" stroke="#E2B350" stroke-width="2.5" stroke-dasharray="25 25"/>
<path d="M134.267 561H184C211.615 561 234 583.386 234 611V657.405C234 685.019 211.615 707.405 184 707.405H61.5C33.8858 707.405 11.5 729.791 11.5 757.405V786.5C11.5 814.114 33.8858 836.5 61.5 836.5H81" stroke="#E2B350" stroke-width="2.5" stroke-dasharray="25 25"/>
<path d="M134.267 1111H184C211.615 1111 234 1133.39 234 1161V1207.4C234 1235.02 211.615 1257.4 184 1257.4H61.5C33.8858 1257.4 11.5 1279.79 11.5 1307.4V1336.5C11.5 1364.11 33.8858 1386.5 61.5 1386.5H81" stroke="#E2B350" stroke-width="2.5" stroke-dasharray="25 25"/>
<circle cx="103.5" cy="286.5" r="12" fill="#1B1B1B" fill-opacity="0.4" stroke="#E2B350"/>
<circle cx="103.5" cy="561.5" r="12" fill="#1B1B1B" fill-opacity="0.4" stroke="#E2B350"/>
<circle cx="103.5" cy="836.5" r="12" fill="#1B1B1B" fill-opacity="0.4" stroke="#E2B350"/>
<circle cx="103.5" cy="1111.5" r="12" fill="#1B1B1B" fill-opacity="0.4" stroke="#E2B350"/>
<circle cx="103.5" cy="1386.5" r="12" fill="#1B1B1B" fill-opacity="0.4" stroke="#E2B350"/>
<path d="M103 309V540" stroke="#E2B350" stroke-width="2.5" stroke-dasharray="25 25"/>
<path d="M103 859V1090" stroke="#E2B350" stroke-width="2.5" stroke-dasharray="25 25"/>
</svg>
