<svg width="15" height="15" viewBox="0 0 15 15" fill="none" xmlns="http://www.w3.org/2000/svg">
<path id="Vector" d="M7.38574 0C3.36467 0 0.104492 3.35813 0.104492 7.5C0.104492 11.6419 3.36467 15 7.38574 15C11.4068 15 14.667 11.6419 14.667 7.5C14.667 3.35813 11.4068 0 7.38574 0ZM11.4554 6.06687L6.86817 10.7919C6.75409 10.9094 6.59997 10.975 6.43918 10.975C6.27839 10.975 6.12366 10.9094 6.01019 10.7919L3.91501 8.63375C3.67777 8.38937 3.67777 7.99437 3.91501 7.75C4.15226 7.50562 4.53574 7.50562 4.77299 7.75L6.43918 9.46625L10.5974 5.18313C10.8346 4.93875 11.2181 4.93875 11.4554 5.18313C11.6926 5.4275 11.6926 5.8225 11.4554 6.06687Z" fill="#E2B350"/>
</svg>
